<svg height="40" viewBox="-126 0 512 512.00065" width="40" xmlns="http://www.w3.org/2000/svg"><path d="m.8125 351.234375c28.769531 45.921875 49.265625 77.757813 63.867188 99.816406 3.257812-10.882812 9.175781-21.125 17.746093-29.695312 3.347657-3.347657 10.292969-8.757813 20.800781-16.222657-21.832031-14.375-52.457031-34.042968-95.386718-60.933593-4.589844-2.875-9.898438 2.445312-7.027344 7.035156zm0 0"/><path d="m115.136719 305.570312v91.277344c1.019531-.71875 12.386719-8.511718 30.457031-20.34375 0-6.613281 0-64.324218 0-70.9375-10.015625 1.136719-21.777344.984375-30.457031.003906zm0 0"/><path d="m130.363281 57.984375c7.6875-8.242187 15.714844-16.152344 24.050781-23.726563-6.054687-14.421874-11.449218-23.925781-15.699218-29.925781-4.089844-5.777343-12.613282-5.777343-16.703125 0-4.246094 5.996094-9.644531 15.503907-15.699219 29.925781 8.335938 7.574219 16.367188 15.484376 24.050781 23.726563zm0 0"/><path d="m110.179688 81.3125c-15.941407-17.480469-33.9375-33.808594-53.234376-48.230469-5.21875-3.902343-12.753906-1.972656-15.402343 3.984375-17.273438 38.808594-26.335938 81.164063-26.335938 123.691406 0 24.039063 7.410157 46.394532 20.070313 64.882813 15.140625-52.703125 40.6875-101.691406 74.902344-144.328125zm0 0"/><path d="m59.886719 251.828125v.003906c74.929687 58.203125 185.636719 4.964844 185.636719-91.074219 0-42.527343-9.066407-84.882812-26.335938-123.691406-2.652344-5.957031-10.183594-7.886718-15.40625-3.984375-71.964844 53.78125-123.195312 131.90625-143.894531 218.746094zm0 0"/><path d="m103.957031 442.890625c-11.980469 11.980469-14.871093 29.664063-8.660156 44.394531 5.808594-5.808594 47.363281-47.359375 54.753906-54.75 5.972657-5.976562 15.609375-5.917968 21.53125 0 5.933594 5.933594 5.957031 15.59375 0 21.53125l-54.75 54.753906c14.964844 6.304688 32.59375 3.140626 44.394531-8.660156 12.589844-12.59375 72.417969-107.097656 98.664063-148.914062 2.878906-4.585938-2.4375-9.90625-7.027344-7.027344-42.339843 26.542969-136.023437 85.792969-148.90625 98.671875zm0 0"/></svg>